<svg xmlns="http://www.w3.org/2000/svg" viewBox="-60 -60 1656 428" xmlns:c2pa="http://c2pa.org/manifest"><metadata><c2pa:manifest>AAAWgmp1bWIAAAAeanVtZGMycGEAEQAQgAAAqgA4m3EDYzJwYQAAABZcanVtYgAAAEdqdW1kYzJtYQARABCAAACqADibcQN1cm46YzJwYTo1NTFjZDE4MS1kYjc5LTQ2YjctYjllMC03NGJjMDQyNzY4MjQAAAADl2p1bWIAAAApanVtZGMyYXMAEQAQgAAAqgA4m3EDYzJwYS5hc3NlcnRpb25zAAAAALxqdW1iAAAARGp1bWRjYm9yABEAEIAAAKoAOJtxE2MycGEuaW5ncmVkaWVudC52MwAAAAAYYzJzaHK53k2AmKQkwWaXxj0j0ewAAABwY2JvcqNpZGM6Zm9ybWF0bWltYWdlL3N2Zyt4bWxqaW5zdGFuY2VJRHgseG1wOmlpZDo5OTg0MzcxMy05NzRlLTRhM2YtYjI0ZS04ZjY2YTE3ZTQ4MmFscmVsYXRpb25zaGlwaHBhcmVudE9mAAAB4mp1bWIAAABBanVtZGNib3IAEQAQgAAAqgA4m3ETYzJwYS5hY3Rpb25zLnYyAAAAABhjMnNo+dqVE2kgA75bTNcfJo5GBgAAAZljYm9yomdhY3Rpb25zgqJmYWN0aW9ua2MycGEub3BlbmVkanBhcmFtZXRlcnOha2luZ3JlZGllbnRzgaJjdXJseC1zZWxmI2p1bWJmPWMycGEuYXNzZXJ0aW9ucy9jMnBhLmluZ3JlZGllbnQudjNkaGFzaFggb3Gw7NXDSw9Q3AfrTKE/jGF26xs1iHeKH7kWYagBgsekZmFjdGlvbngdY29tLmFudGhyb3BpYy5jbGF1ZGUucHJvdmlkZWRqcGFyYW1ldGVyc6F4H2NvbS5hbnRocm9waWMub3JpZ2luLWNvbmZpZGVuY2VndW5rbm93bmtkZXNjcmlwdGlvbnhmQ2xhdWRlIHByb3ZpZGVkIHRoaXMgZmlsZSBhdCB0aGUgcmVxdWVzdCBvZiBhIHVzZXIgYW5kIG1heSBoYXZlIGNyZWF0ZWQgb3IgbW9kaWZpZWQgdGhlIGZpbGUgY29udGVudHMubXNvZnR3YXJlQWdlbnShZG5hbWVmQ2xhdWRlcmFsbEFjdGlvbnNJbmNsdWRlZPUAAADIanVtYgAAAEBqdW1kY2JvcgARABCAAACqADibcRNjMnBhLmhhc2guZGF0YQAAAAAYYzJzaOuIZ0iKRtd4/ZIykErG4lQAAACAY2JvcqVjYWxnZnNoYTI1NmNwYWRNAAAAAAAAAAAAAAAAAGRoYXNoWCC1lSXJ16bk3mkLj3uyXlphaCjHQA/7d+gugNJ+fK2GBGRuYW1lbmp1bWJmIG1hbmlmZXN0amV4Y2x1c2lvbnOBomVzdGFydBiCZmxlbmd0aBkeBAAAAj5qdW1iAAAAJ2p1bWRjMmNsABEAEIAAAKoAOJtxA2MycGEuY2xhaW0udjIAAAACD2Nib3KlY2FsZ2ZzaGEyNTZpc2lnbmF0dXJleE1zZWxmI2p1bWJmPS9jMnBhL3VybjpjMnBhOjU1MWNkMTgxLWRiNzktNDZiNy1iOWUwLTc0YmMwNDI3NjgyNC9jMnBhLnNpZ25hdHVyZWppbnN0YW5jZUlEeCx4bXA6aWlkOmM2ZTk0MDcwLTdkYjQtNGNhMS05OWFlLTc3NzJmNmNhZDQwZnJjcmVhdGVkX2Fzc2VydGlvbnODomN1cmx4LXNlbGYjanVtYmY9YzJwYS5hc3NlcnRpb25zL2MycGEuaW5ncmVkaWVudC52M2RoYXNoWCBvcbDs1cNLD1DcB+tMoT+MYXbrGzWId4ofuRZhqAGCx6JjdXJseCpzZWxmI2p1bWJmPWMycGEuYXNzZXJ0aW9ucy9jMnBhLmFjdGlvbnMudjJkaGFzaFggAAJvRvT/SwPtpumgoLmlsbuoM7sfnO9gp8WQVPRsbFSiY3VybHgpc2VsZiNqdW1iZj1jMnBhLmFzc2VydGlvbnMvYzJwYS5oYXNoLmRhdGFkaGFzaFgg+0S6z+oEx7aNOpvZz/W9WXS/icArQOCHP9hIC4ineaZ0Y2xhaW1fZ2VuZXJhdG9yX2luZm+jZG5hbWVvQW50aHJvcGljIEZpbGVzZ3ZlcnNpb25lMS4wLjBrc3BlY1ZlcnNpb25lMi40LjAAABA4anVtYgAAAChqdW1kYzJjcwARABCAAACqADibcQNjMnBhLnNpZ25hdHVyZQAAABAIY2JvctKEWQISogEmGCFZAgowggIGMIIBjaADAgECAhRA5aAK7sI50L64g/oGQgU9Z1UTADAKBggqhkjOPQQDAzBJMRcwFQYDVQQKEw5BbnRocm9waWMsIFBCQzEuMCwGA1UEAxMlQW50aHJvcGljIENvbnRlbnQgQ3JlZGVudGlhbHMgUm9vdCBDQTAeFw0yNjA4MDcxODQzNTZaFw0yODA4MDYxOTQzNTZaMEQxFzAVBgNVBAoTDkFudGhyb3BpYywgUEJDMSkwJwYDVQQDEyBBbnRocm9waWMgQ2xhdWRlIENvbnRlbnQgU2lnbmluZzBZMBMGByqGSM49AgEGCCqGSM49AwEHA0IABJh6CmvLUBgFFNU0vUKlOVtE6djd17L5SuwX0LemFisBM3dkd/3cyjxFA3Qo5S46fX0/ihY0VZ7mfb9KF703t5OjWDBWMA4GA1UdDwEB/wQEAwIHgDAVBgNVHSUEDjAMBgorBgEEAYPoXgIBMAwGA1UdEwEB/wQCMAAwHwYDVR0jBBgwFoAUzlHiBIFOZFsj+OPEz5o+nMHXXMIwCgYIKoZIzj0EAwMDZwAwZAIwMXMdFJ4BetLLVY7ORuE9noqbbAZOZn/aArXyTwFAZfKrPzxF2vPoJNf1+UCdg1XGAjBwX1zd9WGqYkqmL5SFqw1QySjr1zJfpJM9+1rdDwSPLMOPOjKuiXjoU/pUUeG9RwmhY3BhZFkNngAAAAAAAAAAAAAAAAAAAAAAAAAAAAAAAAAAAAAAAAAAAAAAAAAAAAAAAAAAAAAAAAAAAAAAAAAAAAAAAAAAAAAAAAAAAAAAAAAAAAAAAAAAAAAAAAAAAAAAAAAAAAAAAAAAAAAAAAAAAAAAAAAAAAAAAAAAAAAAAAAAAAAAAAAAAAAAAAAAAAAAAAAAAAAAAAAAAAAAAAAAAAAAAAAAAAAAAAAAAAAAAAAAAAAAAAAAAAAAAAAAAAAAAAAAAAAAAAAAAAAAAAAAAAAAAAAAAAAAAAAAAAAAAAAAAAAAAAAAAAAAAAAAAAAAAAAAAAAAAAAAAAAAAAAAAAAAAAAAAAAAAAAAAAAAAAAAAAAAAAAAAAAAAAAAAAAAAAAAAAAAAAAAAAAAAAAAAAAAAAAAAAAAAAAAAAAAAAAAAAAAAAAAAAAAAAAAAAAAAAAAAAAAAAAAAAAAAAAAAAAAAAAAAAAAAAAAAAAAAAAAAAAAAAAAAAAAAAAAAAAAAAAAAAAAAAAAAAAAAAAAAAAAAAAAAAAAAAAAAAAAAAAAAAAAAAAAAAAAAAAAAAAAAAAAAAAAAAAAAAAAAAAAAAAAAAAAAAAAAAAAAAAAAAAAAAAAAAAAAAAAAAAAAAAAAAAAAAAAAAAAAAAAAAAAAAAAAAAAAAAAAAAAAAAAAAAAAAAAAAAAAAAAAAAAAAAAAAAAAAAAAAAAAAAAAAAAAAAAAAAAAAAAAAAAAAAAAAAAAAAAAAAAAAAAAAAAAAAAAAAAAAAAAAAAAAAAAAAAAAAAAAAAAAAAAAAAAAAAAAAAAAAAAAAAAAAAAAAAAAAAAAAAAAAAAAAAAAAAAAAAAAAAAAAAAAAAAAAAAAAAAAAAAAAAAAAAAAAAAAAAAAAAAAAAAAAAAAAAAAAAAAAAAAAAAAAAAAAAAAAAAAAAAAAAAAAAAAAAAAAAAAAAAAAAAAAAAAAAAAAAAAAAAAAAAAAAAAAAAAAAAAAAAAAAAAAAAAAAAAAAAAAAAAAAAAAAAAAAAAAAAAAAAAAAAAAAAAAAAAAAAAAAAAAAAAAAAAAAAAAAAAAAAAAAAAAAAAAAAAAAAAAAAAAAAAAAAAAAAAAAAAAAAAAAAAAAAAAAAAAAAAAAAAAAAAAAAAAAAAAAAAAAAAAAAAAAAAAAAAAAAAAAAAAAAAAAAAAAAAAAAAAAAAAAAAAAAAAAAAAAAAAAAAAAAAAAAAAAAAAAAAAAAAAAAAAAAAAAAAAAAAAAAAAAAAAAAAAAAAAAAAAAAAAAAAAAAAAAAAAAAAAAAAAAAAAAAAAAAAAAAAAAAAAAAAAAAAAAAAAAAAAAAAAAAAAAAAAAAAAAAAAAAAAAAAAAAAAAAAAAAAAAAAAAAAAAAAAAAAAAAAAAAAAAAAAAAAAAAAAAAAAAAAAAAAAAAAAAAAAAAAAAAAAAAAAAAAAAAAAAAAAAAAAAAAAAAAAAAAAAAAAAAAAAAAAAAAAAAAAAAAAAAAAAAAAAAAAAAAAAAAAAAAAAAAAAAAAAAAAAAAAAAAAAAAAAAAAAAAAAAAAAAAAAAAAAAAAAAAAAAAAAAAAAAAAAAAAAAAAAAAAAAAAAAAAAAAAAAAAAAAAAAAAAAAAAAAAAAAAAAAAAAAAAAAAAAAAAAAAAAAAAAAAAAAAAAAAAAAAAAAAAAAAAAAAAAAAAAAAAAAAAAAAAAAAAAAAAAAAAAAAAAAAAAAAAAAAAAAAAAAAAAAAAAAAAAAAAAAAAAAAAAAAAAAAAAAAAAAAAAAAAAAAAAAAAAAAAAAAAAAAAAAAAAAAAAAAAAAAAAAAAAAAAAAAAAAAAAAAAAAAAAAAAAAAAAAAAAAAAAAAAAAAAAAAAAAAAAAAAAAAAAAAAAAAAAAAAAAAAAAAAAAAAAAAAAAAAAAAAAAAAAAAAAAAAAAAAAAAAAAAAAAAAAAAAAAAAAAAAAAAAAAAAAAAAAAAAAAAAAAAAAAAAAAAAAAAAAAAAAAAAAAAAAAAAAAAAAAAAAAAAAAAAAAAAAAAAAAAAAAAAAAAAAAAAAAAAAAAAAAAAAAAAAAAAAAAAAAAAAAAAAAAAAAAAAAAAAAAAAAAAAAAAAAAAAAAAAAAAAAAAAAAAAAAAAAAAAAAAAAAAAAAAAAAAAAAAAAAAAAAAAAAAAAAAAAAAAAAAAAAAAAAAAAAAAAAAAAAAAAAAAAAAAAAAAAAAAAAAAAAAAAAAAAAAAAAAAAAAAAAAAAAAAAAAAAAAAAAAAAAAAAAAAAAAAAAAAAAAAAAAAAAAAAAAAAAAAAAAAAAAAAAAAAAAAAAAAAAAAAAAAAAAAAAAAAAAAAAAAAAAAAAAAAAAAAAAAAAAAAAAAAAAAAAAAAAAAAAAAAAAAAAAAAAAAAAAAAAAAAAAAAAAAAAAAAAAAAAAAAAAAAAAAAAAAAAAAAAAAAAAAAAAAAAAAAAAAAAAAAAAAAAAAAAAAAAAAAAAAAAAAAAAAAAAAAAAAAAAAAAAAAAAAAAAAAAAAAAAAAAAAAAAAAAAAAAAAAAAAAAAAAAAAAAAAAAAAAAAAAAAAAAAAAAAAAAAAAAAAAAAAAAAAAAAAAAAAAAAAAAAAAAAAAAAAAAAAAAAAAAAAAAAAAAAAAAAAAAAAAAAAAAAAAAAAAAAAAAAAAAAAAAAAAAAAAAAAAAAAAAAAAAAAAAAAAAAAAAAAAAAAAAAAAAAAAAAAAAAAAAAAAAAAAAAAAAAAAAAAAAAAAAAAAAAAAAAAAAAAAAAAAAAAAAAAAAAAAAAAAAAAAAAAAAAAAAAAAAAAAAAAAAAAAAAAAAAAAAAAAAAAAAAAAAAAAAAAAAAAAAAAAAAAAAAAAAAAAAAAAAAAAAAAAAAAAAAAAAAAAAAAAAAAAAAAAAAAAAAAAAAAAAAAAAAAAAAAAAAAAAAAAAAAAAAAAAAAAAAAAAAAAAAAAAAAAAAAAAAAAAAAAAAAAAAAAAAAAAAAAAAAAAAAAAAAAAAAAAAAAAAAAAAAAAAAAAAAAAAAAAAAAAAAAAAAAAAAAAAAAAAAAAAAAAAAAAAAAAAAAAAAAAAAAAAAAAAAAAAAAAAAAAAAAAAAAAAAAAAAAAAAAAAAAAAAAAAAAAAAAAAAAAAAAAAAAAAAAAAAAAAAAAAAAAAAAAAAAAAAAAAAAAAAAAAAAAAAAAAAAAAAAAAAAAAAAAAAAAAAAAAAAAAAAAAAAAAAAAAAAAAAAAAAAAAAAAAAAAAAAAAAAAAAAAAAAAAAAAAAAAAAAAAAAAAAAAAAAAAAAAAAAAAAAAAAAAAAAAAAAAAAAAAAAAAAAAAAAAAAAAAAAAAAAAAAAAAAAAAAAAAAAAAAAAAAAAAAAAAAAAAAAAAAAAAAAAAAAAAAAAAAAAAAAAAAAAAAAAAAAAAAAAAAAAAAAAAAAAAAAAAAAAAAAAAAAAAAAAAAAAAAAAAAAAAAAAAAAAAAAAAAAAAAAAAAAAAAAAAAAAAAAAAAAAAAAAAAAAAAAAAAAAAAAAAAAAAAAAAAAAAAAAAAAAAAAAAAAAAAAAAAAAAAAAAAAAAAAAAAAAAAAAAAAAAAAAAAAAAAAAAAAAAAAAAAAAAAAAAAAAAAAAAAAAAAAAAAAAAAAAAAAAAAAAAAAAAAAAAAAAAAAAAAAAAAAAAAAAAAAAAAAAAAAAAAAAAAAAAAAAAAAAAAAAAAAAAAAAAAAAAAAAAAAAAAAAAAAAAAAAAAAAAAAAAAAAAAAAAAAAAAAAAAAAAAAAAAAAAAAAAAAAAAAAAAAAAAAAAAAAAAAAAAAAAAAAAAAAAAAAAAAAAAAAAAAAAAAAAAAAAAAAAAAAAAAAAAAAAAAAAAAAAAAAAAAAAAAAAAAAAAAAAAAAAAAAAAAAAAAAAAAAAAAAAAAAAAAAAAAAAAAAAAAAAAAAAAAAAAAAAAAAAAAAAAAAAAAAAAAAAAAAAAAAAAAAAAAAAAAAAAAAAAAAAAAAAAAAAAAAAAAAAAAAAAAAAAAAAAAAAAAAAAAAAAAAAAAAAAAAAAAAAAAAAAAAAAAAAAAAAAAAAAAAAAAAAAAAAAAAAAAAAAAAAAAAAAAAAAAAAAAAAAAAAAAAAAAAAAAAAAAAAAAAAAAAAAAAAAAAAAAAAAAAAAAAAAAAAAAAAAAAAAAAAAAAAAAAAAAAAAAAAAAAAAAAAAAAAAAAAAAAAAAAAAAAAAAAAAAAAAAAAAAAAAAAAAAAAAAAAAAAAAAAAAAAAAAAAAAAAAAAAAAAAAAAAAAAAAAAAAAAAAAAAAAAAAAAAAAAAAAAAAAAAAAAAAAAAAAAAAAAAAAAAAAAAAAAAAAAAAAAAAAAAAAAAAAAAAAAAAAAAAAAAAAAAAAAAAAAAAAAAAAAAAAAAAAAAAAAAAAAAAAAAAAAAAAAAAAAAAAAAAAAAAAAAAAAAAAAAAAAAAAAAAAAAAAAAAAAAAAAAAAAAAAAAAAAAAAAAAAAAAAAAAAAAAAAAAAAAAAAAAAAAAAAAAAAAAAAAAAAAAAAAAAAAAAAAAAAAAAAAAAAAAAAAAAAAAAAAAAAAAAAAAAAAAAAAAAAAAAAAAAAAAAAAAAAAAAAAAAAAAAAAAAAAAAAAAAAAAAAAAAAAAAAAAAAAAAAAAAAAAAAAAAAAAAAAAAAAAAAAAAAAAAAAAAAAAAAAAPZYQK+GmnL/tyA2BLlED6KxUb6sZmpwOeQhbl4kY2UFGVtH3tWI30zieILkWhc5svVvQ8tmN5Sx4cPay1MLZ4vrWlo=</c2pa:manifest></metadata><title>MARILOG</title><path fill="#092C4D" d="M0.00 0.00 L100.00 70.77 L200.00 0.00 L200.00 200.00 L156.92 200.00 L156.92 81.25 L100.00 121.54 L43.08 81.25 L43.08 200.00 L0.00 200.00 Z"/><path fill="#092C4D" d="M55.38 101.50 L95.38 129.81 L95.38 200.00 Z"/><path fill="#0E9999" d="M144.62 101.50 L104.62 129.81 L104.62 200.00 Z"/><path fill="#092C4D" d="M1182.53 203.36Q1158.92 203.36 1138.85 195.65Q1118.79 187.94 1104.08 173.97Q1089.37 160 1081.2 141.16Q1073.03 122.32 1073.03 99.95Q1073.03 77.58 1081.2 58.81Q1089.37 40.05 1104.1 26.03Q1118.84 12.01 1138.83 4.32Q1158.83 -3.36 1182.44 -3.36Q1206.15 -3.36 1226.04 4.29Q1245.94 11.95 1260.64 25.92Q1275.33 39.88 1283.5 58.7Q1291.67 77.52 1291.67 99.96Q1291.67 122.41 1283.5 141.29Q1275.33 160.17 1260.64 174.11Q1245.94 188.05 1226.04 195.71Q1206.15 203.36 1182.53 203.36ZM523.51 200V0H608.84Q650.7 0 673.84 19.34Q696.98 38.68 696.98 72.5Q696.98 94.78 686.44 110.89Q675.9 127 656.42 135.6Q656.23 135.68 656.04 135.76L700.74 200H650.81L612.28 144.18Q611.13 144.2 609.97 144.2H569.91V200ZM249.71 200 338.87 0H384.64L473.96 200H425.62L407.83 157.21H315.04L297.25 200ZM1451.7 203.36Q1428.1 203.36 1408.19 195.79Q1388.28 188.22 1373.62 174.31Q1358.97 160.39 1350.86 141.51Q1342.74 122.63 1342.74 100Q1342.74 77.37 1350.86 58.49Q1358.97 39.61 1373.77 25.69Q1388.57 11.78 1408.59 4.21Q1428.62 -3.36 1452.61 -3.36Q1479.22 -3.36 1500.52 5.43Q1521.83 14.22 1536.28 31.07L1506.76 58.55Q1495.78 47.01 1482.97 41.43Q1470.16 35.86 1454.83 35.86Q1440.41 35.86 1428.4 40.5Q1416.38 45.13 1407.68 53.69Q1398.98 62.24 1394.26 73.97Q1389.54 85.7 1389.54 100Q1389.54 113.9 1394.26 125.69Q1398.98 137.47 1407.68 146.11Q1416.38 154.75 1428.2 159.44Q1440.01 164.14 1454.32 164.14Q1468.16 164.14 1481.09 159.68Q1485.8 158.05 1490.44 155.61V96.81H1532.64V177.94Q1516.25 190.39 1494.71 196.88Q1473.18 203.36 1451.7 203.36ZM884.37 200V0H930.76V162.2H1030.88V200ZM1182.43 164.14Q1195.83 164.14 1207.18 159.48Q1218.52 154.81 1226.98 146.26Q1235.44 137.7 1240.16 125.95Q1244.88 114.2 1244.88 99.95Q1244.88 85.7 1240.18 74.02Q1235.48 62.33 1227.01 53.76Q1218.54 45.2 1207.19 40.53Q1195.84 35.86 1182.44 35.86Q1169.04 35.86 1157.65 40.54Q1146.25 45.21 1137.76 53.78Q1129.26 62.36 1124.54 74.06Q1119.82 85.76 1119.82 99.94Q1119.82 114.13 1124.53 125.88Q1129.24 137.63 1137.73 146.25Q1146.21 154.87 1157.62 159.5Q1169.03 164.14 1182.43 164.14ZM762.08 200V0H808.48V200ZM569.91 107.3H607.58Q628.82 107.3 639.5 98.09Q650.18 88.87 650.18 72.5Q650.18 55.95 639.5 46.82Q628.82 37.69 607.58 37.69H569.91ZM393.23 122.09 361.44 45.63 329.65 122.09Z"/><g transform="translate(-6.48 0)"><path fill="#0E9999" d="M180.92 308V260H200.54Q210.15 260 215.61 264.54Q221.07 269.08 221.07 277.09Q221.07 282.34 218.6 286.15Q216.14 289.95 211.56 291.98Q211.23 292.13 210.88 292.27L221.92 308H212.28L202.5 293.97Q201.58 294.02 200.63 294.02H189.82V308ZM722.77 308V260H742.39Q752 260 757.46 264.54Q762.92 269.08 762.92 277.09Q762.92 282.34 760.45 286.15Q757.99 289.95 753.41 291.98Q753.08 292.13 752.73 292.27L763.77 308H754.13L744.35 293.97Q743.43 294.02 742.48 294.02H731.67V308ZM801.7 308V260H821.4Q827.77 260 832.34 262.05Q836.91 264.09 839.38 267.93Q841.85 271.77 841.85 277.09Q841.85 282.34 839.38 286.18Q836.91 290.02 832.34 292.07Q827.77 294.12 821.4 294.12H810.6V308ZM431.28 308V260H438.61L457.64 291.77L476.39 260H483.72L483.8 308H475.33L475.26 276.25L459.51 302.55H455.49L439.75 276.63V308ZM6.48 308V260H13.81L32.84 291.77L51.59 260H58.92L59 308H50.53L50.46 276.25L34.71 302.55H30.69L14.95 276.63V308ZM93.94 308 115.52 260H124.32L145.96 308H136.63L131.87 296.89H107.88L103.11 308ZM648.03 308V260H683.05V267.49H656.89V279.98H680.12V287.28H656.89V300.51H684V308ZM525.56 308V260H560.58V267.49H534.42V279.98H557.65V287.28H534.42V300.51H561.53V308ZM320.23 308V267.53H304.32V260H345.03V267.53H329.13V308ZM259.85 308V260H268.75V308ZM380.6 308V260H389.5V308ZM731.67 286.65H742.11Q747.97 286.65 750.96 284.13Q753.94 281.6 753.94 277.09Q753.94 272.51 750.96 270.02Q747.97 267.52 742.11 267.52H731.67ZM189.82 286.65H200.26Q206.12 286.65 209.11 284.13Q212.09 281.6 212.09 277.09Q212.09 272.51 209.11 270.02Q206.12 267.52 200.26 267.52H189.82ZM810.6 286.59H821.03Q826.9 286.59 829.88 284.1Q832.87 281.6 832.87 277.09Q832.87 272.51 829.88 270.02Q826.9 267.52 821.03 267.52H810.6ZM128.87 289.89 119.87 268.91 110.88 289.89Z"/></g></svg>